<svg xmlns="http://www.w3.org/2000/svg" viewBox="0 0 320 320"><defs><style>.cls-2{fill:#0033ad}</style></defs><g id="Layer_2" data-name="Layer 2"><g id="Layer_1-2" data-name="Layer 1"><circle cx="160" cy="160" r="160" fill="#fff"/><path class="cls-2" d="M92.25 159a20.28 20.28 0 0019 21.36h1.2A20.18 20.18 0 1092.25 159zM16.89 153.76a6.53 6.53 0 106.16 6.88 6.58 6.58 0 00-6.16-6.88zM91 41.77a6.55 6.55 0 10-8.8-2.88 6.57 6.57 0 008.8 2.88zM111.45 77.45A10.07 10.07 0 1097.93 73a10 10 0 0013.52 4.45zM42.49 102.08a8.32 8.32 0 10-2.4-11.52 8.37 8.37 0 002.4 11.52zM54.73 150.16a10.1 10.1 0 109.52 10.64 10.05 10.05 0 00-9.52-10.64zM43.61 218a8.33 8.33 0 1011.2 3.68 8.34 8.34 0 00-11.2-3.68zM82.81 129.28a11.85 11.85 0 10-3.44-16.4 11.78 11.78 0 003.44 16.4zM207.2 76.65a10.11 10.11 0 10-2.88-14 10 10 0 002.88 14zM227.92 41.05a6.53 6.53 0 10-1.92-9.12 6.58 6.58 0 001.92 9.12zM208.8 139.76a20.23 20.23 0 00-2.24 40.4h1.2a20.24 20.24 0 0020.16-19 20.37 20.37 0 00-19.12-21.36zM118.09 127.92A20.1 20.1 0 00136.17 139a19.73 19.73 0 009-2.16 20.2 20.2 0 00-9.11-38.24 19.8 19.8 0 00-9 2.16 20.12 20.12 0 00-8.97 27.16zM276.4 102a8.33 8.33 0 10-11.2-3.68 8.34 8.34 0 0011.2 3.68zM225.2 108.48a11.86 11.86 0 1015.92 5.28 11.86 11.86 0 00-15.92-5.28zM159.2 38a8.33 8.33 0 10-7.84-8.8 8.33 8.33 0 007.84 8.8zM159.12 90.32a11.89 11.89 0 10-11.2-12.55 11.89 11.89 0 0011.2 12.55zM94.81 211.52a11.86 11.86 0 10-15.92-5.28 11.86 11.86 0 0015.92 5.28zM166.8 107.6a20.27 20.27 0 005.84 28 20.19 20.19 0 0027.92-5.84 20.27 20.27 0 00-5.84-28 20 20 0 00-11-3.28 20.25 20.25 0 00-16.92 9.12zM201.92 192.08A20.1 20.1 0 00183.84 181a20.19 20.19 0 00-19.12 13.84 20.31 20.31 0 001.12 15.44 20.1 20.1 0 0018.08 11.12 20.15 20.15 0 0018-29.28zM237.2 190.72a11.9 11.9 0 103.44 16.48 11.9 11.9 0 00-3.44-16.48zM275.92 160.32a10.1 10.1 0 10-10.64 9.52 10.05 10.05 0 0010.64-9.52zM303.83 153.2a6.53 6.53 0 106.16 6.88 6.48 6.48 0 00-6.16-6.88zM277.52 217.92a8.32 8.32 0 102.4 11.52 8.37 8.37 0 00-2.4-11.52zM92.09 279a6.52 6.52 0 101.84 9 6.41 6.41 0 00-1.84-9zM229 278.23a6.55 6.55 0 108.8 2.88 6.57 6.57 0 00-8.8-2.88zM153.2 212.4a20.18 20.18 0 10-16.87 9.12 20.24 20.24 0 0016.87-9.12zM112.81 243.35a10.11 10.11 0 102.88 14 10.17 10.17 0 00-2.88-14zM159.92 282a8.33 8.33 0 107.84 8.8 8.33 8.33 0 00-7.84-8.8zM160 229.68a11.89 11.89 0 1011.2 12.55 11.89 11.89 0 00-11.2-12.55zM208.56 242.47a10.07 10.07 0 1013.52 4.53 10.09 10.09 0 00-13.52-4.53z"/></g></g></svg>